<?xml version="1.0" standalone="no"?>
<!DOCTYPE svg PUBLIC "-//W3C//DTD SVG 20010904//EN"
 "http://www.w3.org/TR/2001/REC-SVG-20010904/DTD/svg10.dtd">
<svg version="1.0" xmlns="http://www.w3.org/2000/svg"
 width="2500.000000pt" height="652.000000pt" viewBox="0 0 2500.000000 652.000000"
 preserveAspectRatio="xMidYMid meet">

	<g transform="translate(0.000000,652.000000) scale(0.100000,-0.100000)"
	fill="#000000" stroke="none">
		<path d="M4626 4003 c-410 -821 -746 -1495 -746 -1498 0 -3 208 -5 463 -5
l462 0 284 568 283 567 642 -1282 c352 -706 643 -1283 646 -1283 3 0 109 207
235 460 l230 460 -876 1753 -876 1752 -747 -1492z"/>
		<path d="M2280 4835 c0 -11 1165 -2335 1171 -2335 3 0 108 209 233 464 l228
464 -350 706 -351 706 -465 0 c-256 0 -466 -2 -466 -5z"/>
		<path d="M7242 4095 l-372 -746 230 -459 c127 -253 233 -460 236 -460 4 0
1204 2396 1204 2405 0 3 -208 5 -463 5 l-462 0 -373 -745z"/>
		<path d="M12195 3914 c-405 -41 -685 -332 -685 -711 0 -120 21 -216 72 -323
34 -71 55 -100 132 -175 73 -73 108 -99 176 -133 127 -62 220 -84 370 -85 160
-2 252 18 389 85 89 43 117 62 186 132 126 125 189 268 201 456 20 306 -155
579 -446 697 -106 42 -284 68 -395 57z m187 -255 c174 -36 319 -174 357 -340
13 -57 13 -182 0 -238 -47 -207 -235 -349 -464 -350 -360 -3 -588 351 -435
676 90 193 318 299 542 252z"/>
		<path d="M9165 3881 c5 -8 228 -664 407 -1194 l60 -178 150 3 150 3 167 477
c91 262 168 479 171 482 3 3 80 -212 171 -477 l165 -482 150 -3 149 -2 76 227
c43 126 147 434 233 687 86 252 156 460 156 462 0 3 -61 3 -136 2 l-136 -3
-171 -498 c-94 -274 -174 -494 -178 -490 -6 7 -339 978 -339 990 0 2 -59 2
-131 1 l-132 -3 -172 -493 c-95 -271 -174 -494 -176 -497 -5 -4 -51 130 -231
668 l-110 327 -150 0 c-89 0 -147 -4 -143 -9z"/>
		<path d="M13370 3201 l0 -691 140 0 140 0 0 200 0 200 168 0 c92 0 172 -4 178
-8 6 -4 72 -94 148 -199 l137 -193 154 0 155 0 -138 193 c-76 105 -148 206
-160 224 l-22 31 47 28 c74 43 120 83 158 138 128 188 100 468 -61 616 -64 58
-117 87 -219 121 -67 22 -84 23 -447 27 l-378 3 0 -690z m758 420 c99 -45 149
-133 140 -249 -5 -73 -33 -128 -87 -169 -69 -54 -120 -63 -338 -63 l-193 0 0
256 0 255 213 -3 c198 -3 215 -5 265 -27z"/>
		<path d="M14900 3200 l0 -690 140 0 140 0 0 178 0 177 103 103 104 103 242
-280 243 -281 165 0 c129 0 163 3 157 13 -4 6 -145 178 -312 380 l-304 368
179 185 c98 102 231 241 296 309 l119 125 -159 0 -160 0 -336 -337 -337 -338
0 338 0 337 -140 0 -140 0 0 -690z"/>
		<path d="M16420 3200 l0 -690 145 0 145 0 0 290 0 290 350 0 350 0 0 -290 0
-290 140 0 140 0 0 690 0 690 -140 0 -140 0 0 -280 0 -280 -350 0 -350 0 0
280 0 280 -145 0 -145 0 0 -690z"/>
		<path d="M18110 3200 l0 -690 140 0 140 0 0 690 0 690 -140 0 -140 0 0 -690z"/>
		<path d="M18735 3593 c73 -164 212 -473 308 -688 l175 -390 138 -3 139 -3 305
682 c168 376 307 686 308 691 2 4 -61 8 -140 8 l-143 0 -225 -506 c-124 -278
-229 -507 -233 -507 -5 -1 -109 225 -232 503 l-224 505 -155 3 -155 3 134
-298z"/>
		<path d="M20300 3200 l0 -690 535 0 535 0 0 115 0 115 -392 2 -393 3 0 175 0
175 338 3 337 2 0 115 0 115 -340 0 -340 0 2 163 3 162 383 3 382 2 0 115 0
115 -525 0 -525 0 0 -690z"/>
	</g>
</svg>
